<svg xmlns:dc="http://purl.org/dc/elements/1.1/" xmlns:cc="http://creativecommons.org/ns#" xmlns:rdf="http://www.w3.org/1999/02/22-rdf-syntax-ns#" xmlns:svg="http://www.w3.org/2000/svg" xmlns="http://www.w3.org/2000/svg" xmlns:sodipodi="http://sodipodi.sourceforge.net/DTD/sodipodi-0.dtd" xmlns:inkscape="http://www.inkscape.org/namespaces/inkscape" version="1.1" x="0px" y="0px" viewBox="0 0 100 125"><g transform="translate(0,-952.36218)"><path style="color: rgb(204, 201, 201);enable-background:accumulate;" d="m 15,976.36217 c -1.1794,0 -2.2619,0.3543 -3.1875,0.9375 l 35.5,30.03133 c 1.6251,1.3763 3.8153,1.3761 5.4375,0 l 35.4375,-30.03133 c -0.9256,-0.5832 -2.0081,-0.9375 -3.1875,-0.9375 l -70,0 z m -5.6562,4.0312 C 9.1298,981.01137 9,981.66967 9,982.36217 l 0,40.00003 c 0,1.2049 0.3621,2.312 0.9688,3.25 L 35.375,1002.456 9.3438,980.39337 z m 81.3124,0 -25.9687,22.03133 25.3437,23.1875 c 0.6067,-0.938 0.9688,-2.0451 0.9688,-3.25 l 0,-40.00003 c 0,-0.6925 -0.1298,-1.3508 -0.3438,-1.9688 z m -29.0312,24.65633 -6.3125,5.3437 c -3.053,2.5902 -7.5403,2.5864 -10.5937,0 l -6.2813,-5.3124 -25.2187,23 c 0.5643,0.1747 1.158,0.2812 1.7812,0.2812 l 70,0 c 0.6232,0 1.2169,-0.1065 1.7812,-0.2812 L 61.625,1005.0497 z" fill="rgb(204, 201, 201)" stroke="none" marker="none" visibility="visible" display="inline" overflow="visible"/></g></svg>