<?xml version="1.0" encoding="iso-8859-1"?>
<!-- Generator: Adobe Illustrator 19.0.0, SVG Export Plug-In . SVG Version: 6.00 Build 0)  -->
<svg version="1.1" id="Capa_1" xmlns="http://www.w3.org/2000/svg" xmlns:xlink="http://www.w3.org/1999/xlink" x="0px" y="0px"
	 viewBox="0 0 512 512" style="enable-background:new 0 0 512 512;" xml:space="preserve">
<g>
	<g>
		<path d="M482.507,71.373H29.493C13.231,71.373,0,84.604,0,100.866v310.267c0,16.263,13.231,29.493,29.493,29.493h453.014
			c16.262,0,29.493-13.231,29.493-29.493V100.866C512,84.604,498.769,71.373,482.507,71.373z M476.608,405.235H35.392v-298.47
			h441.217V405.235z"/>
	</g>
</g>
<g>
	<g>
		<path d="M485.208,109.868L255.711,247.335L26.809,109.879L8.588,140.222L240.74,279.63c4.796,2.737,10.028,4.099,15.189,4.099
			c5.391,0,10.7-1.492,15.336-4.453L503.4,140.228L485.208,109.868z"/>
	</g>
</g>
<g>
	<g>
		
			<rect x="388.447" y="195.828" transform="matrix(0.738 -0.6748 0.6748 0.738 -113.9213 359.6112)" width="35.392" height="261.368"/>
	</g>
</g>
<g>
	<g>
		
			<rect x="-24.695" y="309.062" transform="matrix(0.6747 -0.7381 0.7381 0.6747 -206.834 184.2213)" width="260.543" height="35.392"/>
	</g>
</g>
<g>
</g>
<g>
</g>
<g>
</g>
<g>
</g>
<g>
</g>
<g>
</g>
<g>
</g>
<g>
</g>
<g>
</g>
<g>
</g>
<g>
</g>
<g>
</g>
<g>
</g>
<g>
</g>
<g>
</g>
</svg>
