<svg xmlns="http://www.w3.org/2000/svg" xmlns:xlink="http://www.w3.org/1999/xlink" version="1.1" x="0px" y="0px" viewBox="0 0 100 125" enable-background="new 0 0 100 100" xml:space="preserve"><g><path d="M50,33.2c-4.6,0-8.4,3.8-8.4,8.4c0,4.6,3.8,8.4,8.4,8.4s8.4-3.8,8.4-8.4C58.4,37,54.6,33.2,50,33.2z" fill="rgb(204, 201, 201)"/><path d="M17.8,85.7c0,1.1,0.9,2,2,2h60.5c1.1,0,2-0.9,2-2v-8.5H17.8V85.7z" fill="rgb(204, 201, 201)"/><path d="M80.3,13.5H19.8c-1.1,0-2,0.9-2,2v57.7h64.5V15.5C82.3,14.4,81.4,13.5,80.3,13.5z M50,59.8c-10,0-18.2-8.2-18.2-18.2   c0-10,8.1-18.2,18.2-18.2c10,0,18.2,8.2,18.2,18.2C68.2,51.6,60,59.8,50,59.8z" fill="rgb(204, 201, 201)"/></g></svg>