<?xml version="1.0" encoding="iso-8859-1"?>
<!-- Generator: Adobe Illustrator 19.0.0, SVG Export Plug-In . SVG Version: 6.00 Build 0)  -->
<svg version="1.1" id="Capa_1" xmlns="http://www.w3.org/2000/svg" xmlns:xlink="http://www.w3.org/1999/xlink" x="0px" y="0px"
	 viewBox="0 0 512 512" style="enable-background:new 0 0 512 512;" xml:space="preserve">
<g>
	<g>
		<path d="M494.545,68.364H17.455C7.814,68.364,0,76.177,0,85.818v340.364c0,9.641,7.814,17.455,17.455,17.455h477.091
			c9.641,0,17.455-7.814,17.455-17.455V85.818C512,76.177,504.186,68.364,494.545,68.364z M477.091,408.727H34.909V103.273h442.182
			V408.727z"/>
	</g>
</g>
<g>
	<g>
		<path d="M483.98,71.93L256,245.411L28.026,71.93L6.883,99.706l238.545,181.533c3.124,2.374,6.848,3.561,10.572,3.561
			s7.447-1.187,10.572-3.561L505.117,99.706L483.98,71.93z"/>
	</g>
</g>
<g>
</g>
<g>
</g>
<g>
</g>
<g>
</g>
<g>
</g>
<g>
</g>
<g>
</g>
<g>
</g>
<g>
</g>
<g>
</g>
<g>
</g>
<g>
</g>
<g>
</g>
<g>
</g>
<g>
</g>
</svg>
