<svg xmlns="http://www.w3.org/2000/svg" xmlns:xlink="http://www.w3.org/1999/xlink" xml:space="preserve" version="1.1" style="shape-rendering:geometricPrecision;text-rendering:geometricPrecision;image-rendering:optimizeQuality;" viewBox="0 0 363 453.75" x="0px" y="0px" fill-rule="evenodd" clip-rule="evenodd"><defs><style type="text/css">
   
    .fil0 {fill:rgb(204, 201, 201)}
   
  </style></defs><g><path class="fil0" d="M96 135l23 -11c10,-5 14,-16 11,-26l-30 -83c-2,-7 -8,-12 -16,-14 -26,-4 -47,3 -64,19 -14,13 -21,30 -20,49 8,134 161,286 294,294 19,2 36,-5 50,-19 16,-17 23,-38 18,-65 -1,-7 -6,-13 -14,-16l-83 -29c-10,-4 -21,1 -26,11l-10 22c-61,-22 -110,-72 -133,-132z"/></g></svg>