<?xml version="1.0" encoding="iso-8859-1"?>
<!-- Generator: Adobe Illustrator 19.0.0, SVG Export Plug-In . SVG Version: 6.00 Build 0)  -->
<svg version="1.1" id="Capa_1" xmlns="http://www.w3.org/2000/svg" xmlns:xlink="http://www.w3.org/1999/xlink" x="0px" y="0px"
	 viewBox="0 0 512 512" style="enable-background:new 0 0 512 512;" xml:space="preserve">
<g>
	<g>
		<g>
			<rect x="107.246" y="331.004" transform="matrix(0.7071 -0.7071 0.7071 0.7071 -209.2709 188.7836)" width="32" height="32"/>
			<polygon points="374.288,269.264 297.76,345.808 167.296,215.344 243.84,138.816 107.232,2.208 1.104,93.184 1.104,247.488 
				78,324.368 100.624,301.744 33.104,234.24 33.104,107.904 105.568,45.792 198.592,138.816 122.048,215.344 297.76,391.056 
				374.288,314.512 467.312,407.552 405.2,480 278.864,480 213.76,414.896 191.12,437.52 265.616,512 419.92,512 510.896,405.856 
							"/>
			<rect x="152.501" y="376.251" transform="matrix(0.7071 -0.7071 0.7071 0.7071 -228.0108 234.0353)" width="32" height="32"/>
			<rect x="449.104" width="32" height="192"/>
			<rect x="385.104" width="32" height="192"/>
		</g>
	</g>
</g>
<g>
</g>
<g>
</g>
<g>
</g>
<g>
</g>
<g>
</g>
<g>
</g>
<g>
</g>
<g>
</g>
<g>
</g>
<g>
</g>
<g>
</g>
<g>
</g>
<g>
</g>
<g>
</g>
<g>
</g>
</svg>
